<svg width="16" height="16" viewBox="0 0 16 16" fill="none" xmlns="http://www.w3.org/2000/svg">
<g clip-path="url(#clip0)">
<path d="M3.64531 6.85472C3.69105 6.90248 3.74599 6.9405 3.80681 6.96647C3.86763 6.99243 3.93308 7.00582 3.99922 7.00582C4.06535 7.00582 4.1308 6.99243 4.19163 6.96647C4.25245 6.9405 4.30738 6.90248 4.35313 6.85472L7.37656 3.73503C8.25625 2.82878 8.20469 1.32566 7.22312 0.488781C6.36719 -0.240594 5.09375 -0.109344 4.30813 0.701281L4 1.01816L3.69219 0.701281C2.90781 -0.109344 1.63281 -0.240594 0.776875 0.488781C-0.204687 1.32566 -0.254375 2.82784 0.620625 3.73503L3.64531 6.85472ZM8.14281 9.99503H6.64281L6.42156 9.55003C6.36039 9.38677 6.25083 9.24609 6.10753 9.14679C5.96423 9.0475 5.79403 8.99433 5.61969 8.99441H3.37875C3.20441 8.99433 3.03421 9.0475 2.89091 9.14679C2.74761 9.24609 2.63804 9.38677 2.57687 9.55003L2.35812 9.99503H0.858125C0.745423 9.99499 0.633817 10.0172 0.529686 10.0603C0.425555 10.1034 0.33094 10.1666 0.251247 10.2463C0.171555 10.326 0.108348 10.4206 0.0652373 10.5247C0.022127 10.6288 -4.10078e-05 10.7405 5.69684e-08 10.8532L5.69684e-08 15.1422C-4.09886e-05 15.2548 0.0220983 15.3663 0.0651538 15.4704C0.108209 15.5744 0.171338 15.669 0.250935 15.7487C0.330532 15.8283 0.425039 15.8915 0.52906 15.9346C0.633081 15.9778 0.744579 16 0.857188 16H8.14281C8.37021 15.9999 8.58824 15.9094 8.74897 15.7486C8.90971 15.5877 9 15.3696 9 15.1422V10.8532C9.00008 10.6257 8.90983 10.4075 8.74908 10.2466C8.58834 10.0857 8.37026 9.9952 8.14281 9.99503V9.99503ZM4.5 14.625C4.17861 14.625 3.86443 14.5297 3.5972 14.3512C3.32997 14.1726 3.12169 13.9188 2.9987 13.6219C2.8757 13.325 2.84352 12.9982 2.90622 12.683C2.96892 12.3678 3.12369 12.0782 3.35095 11.851C3.57821 11.6237 3.86776 11.469 4.18298 11.4063C4.4982 11.3436 4.82493 11.3757 5.12186 11.4987C5.41879 11.6217 5.67258 11.83 5.85114 12.0972C6.0297 12.3645 6.125 12.6786 6.125 13C6.125 13.431 5.95379 13.8443 5.64905 14.1491C5.3443 14.4538 4.93098 14.625 4.5 14.625V14.625ZM15.6062 11.0032H13.7131L14.4119 9.41722C14.4775 9.20941 14.2891 9.00441 14.0312 9.00441H11.6691C11.4722 9.00441 11.3047 9.12628 11.2784 9.28878L10.7534 12.6303C10.7222 12.8272 10.9059 13.0019 11.1441 13.0019H13.0913L12.335 15.5957C12.2759 15.8035 12.4663 15.9988 12.7172 15.9988C12.783 16.0005 12.8483 15.9865 12.9076 15.958C12.967 15.9295 13.0187 15.8872 13.0584 15.8347L15.9459 11.4938C16.0984 11.2778 15.9097 11.0032 15.6062 11.0032V11.0032ZM14.94 0.0103435L10.2972 0.724093C9.83969 0.794406 9.5 1.21628 9.5 1.71347V5.05003C9.33544 5.01622 9.16799 4.99843 9 4.99691C7.89531 4.99691 7 5.66816 7 6.49691C7 7.32566 7.89531 7.99691 9 7.99691C10.1 7.99691 10.9916 7.33066 11 6.50753V3.11441L14.5 2.57628V4.05066C14.3354 4.01684 14.168 3.99905 14 3.99753C12.8953 3.99753 12 4.66878 12 5.49753C12 6.32628 12.8953 6.99753 14 6.99753C15.1 6.99753 15.9916 6.33128 16 5.50816V1.00003C16 0.391281 15.5 -0.075594 14.94 0.0103435V0.0103435Z" fill="#C4C4C4"/>
</g>
<defs>
<clipPath id="clip0">
<rect width="16" height="16" fill="white"/>
</clipPath>
</defs>
</svg>
