<svg width="16" height="16" viewBox="0 0 16 16" fill="none" xmlns="http://www.w3.org/2000/svg">
<path d="M8.2 1C8.74891 0.999923 9.27801 1.20504 9.68343 1.57509C10.0889 1.94513 10.3413 2.45337 10.3912 3H13.8C13.952 3.00005 14.0984 3.0578 14.2094 3.16158C14.3205 3.26536 14.3881 3.40744 14.3984 3.5591C14.4088 3.71077 14.3612 3.86071 14.2653 3.97864C14.1693 4.09656 14.0322 4.17368 13.8816 4.1944L13.8 4.2H13.3336L12.32 12.984C12.2749 13.3739 12.088 13.7336 11.7949 13.9947C11.5018 14.2558 11.1229 14.4001 10.7304 14.4H5.6696C5.27708 14.4001 4.89823 14.2558 4.60513 13.9947C4.31204 13.7336 4.12514 13.3739 4.08 12.984L3.0656 4.2H2.6C2.45501 4.19999 2.31493 4.14749 2.20566 4.05219C2.09638 3.95689 2.02532 3.82524 2.0056 3.6816L2 3.6C2.00001 3.45501 2.05251 3.31493 2.14781 3.20566C2.24311 3.09638 2.37476 3.02532 2.5184 3.0056L2.6 3H6.0088C6.0587 2.45337 6.31114 1.94513 6.71656 1.57509C7.12198 1.20504 7.65109 0.999923 8.2 1V1ZM7 6C6.804 6 6.64 6.124 6.6064 6.2872L6.6 6.3504V11.2504L6.6064 11.3128C6.64 11.476 6.804 11.6 7 11.6C7.196 11.6 7.36 11.476 7.3936 11.3128L7.4 11.2496V6.3512L7.3936 6.2872C7.36 6.1248 7.196 6 7 6ZM9.4 6C9.204 6 9.04 6.124 9.0064 6.2872L9 6.3504V11.2504L9.0064 11.3128C9.04 11.476 9.204 11.6 9.4 11.6C9.596 11.6 9.76 11.476 9.7936 11.3128L9.8 11.2496V6.3512L9.7936 6.2872C9.76 6.1248 9.596 6.0008 9.4 6.0008V6ZM8.2 2.2C7.716 2.2 7.312 2.544 7.22 3H9.18C9.0872 2.544 8.684 2.2 8.2 2.2V2.2Z" fill="#C4C4C4"/>
</svg>
