<svg width="16" height="16" viewBox="0 0 16 16" fill="none" xmlns="http://www.w3.org/2000/svg">
<path d="M6.66666 1.33331C5.83238 1.33376 5.00983 1.52992 4.26513 1.90604C3.52043 2.28215 2.87436 2.82773 2.37883 3.49892C1.88331 4.17011 1.55216 4.94818 1.41199 5.77061C1.27182 6.59304 1.32656 7.43689 1.57179 8.23432C1.81702 9.03175 2.2459 9.76053 2.82398 10.3621C3.40205 10.9636 4.11319 11.4212 4.90023 11.698C5.68728 11.9747 6.52827 12.063 7.35563 11.9557C8.18299 11.8483 8.97362 11.5484 9.664 11.08L12.96 14.3733C13.0515 14.4716 13.1619 14.5504 13.2846 14.605C13.4073 14.6597 13.5397 14.6891 13.674 14.6914C13.8082 14.6938 13.9416 14.6691 14.0661 14.6188C14.1906 14.5685 14.3038 14.4937 14.3987 14.3987C14.4937 14.3037 14.5685 14.1906 14.6188 14.0661C14.6691 13.9416 14.6938 13.8082 14.6915 13.674C14.6891 13.5397 14.6597 13.4073 14.605 13.2846C14.5504 13.1619 14.4716 13.0515 14.3733 12.96L11.08 9.66398C11.6248 8.86209 11.9408 7.92685 11.9939 6.95883C12.047 5.99081 11.8353 5.02661 11.3814 4.16993C10.9276 3.31324 10.2488 2.59646 9.4181 2.09667C8.58738 1.59687 7.63614 1.33296 6.66666 1.33331ZM3.33333 6.66665C3.33333 5.78259 3.68452 4.93475 4.30964 4.30962C4.93476 3.6845 5.78261 3.33331 6.66666 3.33331C7.55072 3.33331 8.39857 3.6845 9.02369 4.30962C9.64881 4.93475 10 5.78259 10 6.66665C10 7.5507 9.64881 8.39855 9.02369 9.02367C8.39857 9.64879 7.55072 9.99998 6.66666 9.99998C5.78261 9.99998 4.93476 9.64879 4.30964 9.02367C3.68452 8.39855 3.33333 7.5507 3.33333 6.66665Z" fill="#C4C4C4"/>
</svg>
