<svg id="Capa_1" enable-background="new 0 0 512 512" height="512" viewBox="0 0 512 512" width="512" xmlns="http://www.w3.org/2000/svg"><g><g><path d="m472.266 303.785-.88 1.5-131.679 138.06-1.19.84c-23.21 16.4-48.66 31.85-75.62 45.9l-6.9 3.6-.03.02-6.94-3.62c-83.61-43.58-150.829-99.9-194.379-162.87-37.57-54.32-56.9-112.63-54.44-164.2 1.8-38.7 17.3-74.91 43.62-101.96 26.54-27.27 61.31-42.45 97.909-42.76h.12c31.08 0 59.41 11.23 84.22 33.38 10.81 9.64 20.82 21.27 29.92 34.72 9.1-13.45 19.11-25.08 29.92-34.72 24.81-22.15 53.14-33.38 84.22-33.38h.12c36.6.31 71.37 15.49 97.909 42.76 26.32 27.05 41.82 63.26 43.62 101.97 2.12 44.32-11.55 93-39.52 140.76z" fill="#ff8d6e"/><path d="m472.266 303.785-.88 1.5-131.679 138.06-1.19.84c-23.21 16.4-48.66 31.85-75.62 45.9l-6.9 3.6v-407.29c9.1-13.45 19.11-25.08 29.92-34.72 24.81-22.15 53.14-33.38 84.22-33.38h.12c36.6.31 71.37 15.49 97.909 42.76 26.32 27.05 41.82 63.26 43.62 101.97 2.12 44.32-11.55 93-39.52 140.76z" fill="#ed6666"/><circle cx="402.567" cy="371.675" fill="#557f89" r="109.43"/><path d="m511.996 371.675c0 60.34-49.09 109.43-109.429 109.43v-218.86c60.339 0 109.429 49.09 109.429 109.43z" fill="#304b59"/><g><path d="m362.567 356.675h80v30h-80z" fill="#fff"/></g></g><path d="m402.568 356.675h40v30h-40z" fill="#d4f4ee"/></g></svg>